<svg width="64" height="64" viewBox="0 0 64 64" fill="none" xmlns="http://www.w3.org/2000/svg">
  <rect x="10" y="6" width="44" height="52" rx="9" stroke="#C86B3C" stroke-width="3"/>
  <path d="M18 17H46" stroke="#C86B3C" stroke-width="3" stroke-linecap="round"/>
  <circle cx="22" cy="16" r="1.8" fill="#C86B3C"/>
  <circle cx="28" cy="16" r="1.8" fill="#C86B3C"/>
  <circle cx="34" cy="16" r="1.8" fill="#C86B3C"/>
  <circle cx="32" cy="38" r="13" stroke="#C86B3C" stroke-width="3"/>
  <path d="M28 30C30.5 29.2 33.8 30.4 35 32.9C36 35 35.5 37.4 33.8 39.4C32.3 41.2 31.9 43.2 32.8 45.2C28.4 44.8 24.9 41.5 24.1 37.4C23.4 34.1 24.8 31.2 28 30Z" stroke="#C86B3C" stroke-width="3" stroke-linecap="round" stroke-linejoin="round"/>
  <path d="M39 29.5C41.2 31.2 42.7 33.6 43.2 36.4C43.7 39.1 42.9 41.8 41 43.9C41.2 41.7 40.4 39.8 38.9 38.1C37.3 36.2 37.2 33.8 39 29.5Z" stroke="#C86B3C" stroke-width="3" stroke-linecap="round" stroke-linejoin="round"/>
</svg>
