<svg width="64" height="64" viewBox="0 0 64 64" fill="none" xmlns="http://www.w3.org/2000/svg">
  <rect x="10" y="6" width="44" height="52" rx="9" stroke="#0E7490" stroke-width="3"/>
  <path d="M18 17H46" stroke="#0E7490" stroke-width="3" stroke-linecap="round"/>
  <circle cx="22" cy="16" r="1.8" fill="#0E7490"/>
  <circle cx="28" cy="16" r="1.8" fill="#0E7490"/>
  <circle cx="34" cy="16" r="1.8" fill="#0E7490"/>
  <circle cx="32" cy="38" r="13" stroke="#0E7490" stroke-width="3"/>
  <path d="M39 34.5C35.5 31 30.2 31.1 26.8 34.6C24.5 36.9 23.7 40 24.4 42.8C22.8 40.8 22 38.3 22 35.8C22 29.8 26.9 25 32.9 25C36.1 25 39 26.4 41 28.7C38.6 28.1 36.2 28.7 34.2 30.3" stroke="#0E7490" stroke-width="3" stroke-linecap="round" stroke-linejoin="round"/>
</svg>
